<?xml version="1.0" encoding="utf-8"?>
<!-- Generator: Adobe Illustrator 25.2.3, SVG Export Plug-In . SVG Version: 6.00 Build 0)  -->
<svg version="1.1" id="Layer_1" xmlns="http://www.w3.org/2000/svg" xmlns:xlink="http://www.w3.org/1999/xlink" x="0px" y="0px"
	 viewBox="0 0 960 800" style="enable-background:new 0 0 960 800;" xml:space="preserve">
<style type="text/css">
	.st0{fill:url(#SVGID_1_);}
	.st1{fill:url(#SVGID_2_);}
	.st2{fill:url(#SVGID_3_);}
	.st3{fill:url(#SVGID_4_);}
	.st4{fill:url(#SVGID_5_);}
	.st5{fill:url(#SVGID_6_);}
	.st6{fill:url(#SVGID_7_);}
	.st7{fill:url(#SVGID_8_);}
	.st8{fill:url(#SVGID_9_);}
	.st9{fill:url(#SVGID_10_);}
	.st10{fill:url(#SVGID_11_);}
	.st11{fill:url(#SVGID_12_);}
	.st12{fill:url(#SVGID_13_);}
	.st13{fill:url(#SVGID_14_);}
	.st14{fill:url(#SVGID_15_);}
	.st15{fill:url(#SVGID_16_);}
	.st16{fill:url(#SVGID_17_);}
	.st17{fill:url(#SVGID_18_);}
	.st18{fill:url(#SVGID_19_);}
</style>
<g>
	<linearGradient id="SVGID_1_" gradientUnits="userSpaceOnUse" x1="750.1074" y1="129.0414" x2="415.3275" y2="1606.5369">
		<stop  offset="0" style="stop-color:#FCD66C"/>
		<stop  offset="0.1623" style="stop-color:#FCB77A"/>
		<stop  offset="0.4928" style="stop-color:#FC6D9A"/>
		<stop  offset="1" style="stop-color:#B1158C"/>
	</linearGradient>
	<path class="st0" d="M580.93,165.14h121.68c0.55,0,1.08-0.22,1.46-0.62c3.17-3.25,7.56-5.12,12.04-5.12c2.19,0,4.34,0.42,6.38,1.26
		l4.15,1.7c0.58,0.24,1.24,0.2,1.79-0.12c0.55-0.31,0.92-0.86,1-1.48l0.63-4.45c1.87-13.25,13.38-23.23,26.78-23.23
		c4.57,0,9.09,1.16,13.07,3.36l3.25,1.8c0.49,0.27,1.08,0.33,1.61,0.16c0.54-0.17,0.98-0.56,1.22-1.07l1.59-3.36
		c5.62-11.87,17.73-19.54,30.85-19.54c18.81,0,34.12,15.3,34.12,34.12c0,1.78-0.14,3.58-0.42,5.36l-0.65,4.12
		c-0.09,0.6,0.08,1.2,0.48,1.66c0.4,0.46,0.97,0.7,1.58,0.7l4.17-0.09c0.14,0,0.4-0.02,0.37-0.02c4.23,0,8.31,1.54,11.48,4.35
		c0.37,0.33,0.85,0.51,1.35,0.51h42.95c1.13,0,2.04-0.91,2.04-2.04c0-1.13-0.91-2.04-2.04-2.04h-42.2
		c-3.82-3.14-8.61-4.86-13.58-4.86c-0.04,0-0.1,0-0.14,0l-2.04,0.05l0.27-1.71c0.31-1.99,0.47-4,0.47-5.99
		c0-21.06-17.13-38.19-38.19-38.19c-14.69,0-28.24,8.59-34.54,21.88l-0.66,1.4l-1.35-0.75c-4.58-2.53-9.78-3.87-15.04-3.87
		c-15.42,0-28.67,11.5-30.82,26.74l-0.26,1.85l-1.73-0.71c-2.53-1.04-5.2-1.57-7.92-1.57c-5.28,0-10.46,2.08-14.33,5.73H580.93
		c-1.13,0-2.04,0.91-2.04,2.04C578.89,164.23,579.81,165.14,580.93,165.14z"/>
	<linearGradient id="SVGID_2_" gradientUnits="userSpaceOnUse" x1="715.6089" y1="121.2245" x2="380.829" y2="1598.72">
		<stop  offset="0" style="stop-color:#FCD66C"/>
		<stop  offset="0.1623" style="stop-color:#FCB77A"/>
		<stop  offset="0.4928" style="stop-color:#FC6D9A"/>
		<stop  offset="1" style="stop-color:#B1158C"/>
	</linearGradient>
	<path class="st1" d="M756.96,182.29c0-1.13-0.91-2.04-2.04-2.04h-106.3c-1.13,0-2.04,0.91-2.04,2.04c0,1.13,0.91,2.04,2.04,2.04
		h106.3C756.05,184.33,756.96,183.42,756.96,182.29z"/>
	<linearGradient id="SVGID_3_" gradientUnits="userSpaceOnUse" x1="843.5621" y1="150.2169" x2="508.7821" y2="1627.7124">
		<stop  offset="0" style="stop-color:#FCD66C"/>
		<stop  offset="0.1623" style="stop-color:#FCB77A"/>
		<stop  offset="0.4928" style="stop-color:#FC6D9A"/>
		<stop  offset="1" style="stop-color:#B1158C"/>
	</linearGradient>
	<path class="st2" d="M858.03,195.79c0-1.13-0.91-2.04-2.04-2.04h-45.5c-1.13,0-2.04,0.91-2.04,2.04s0.91,2.04,2.04,2.04h45.5
		C857.11,197.82,858.03,196.91,858.03,195.79z"/>
	<linearGradient id="SVGID_4_" gradientUnits="userSpaceOnUse" x1="786.7659" y1="137.3477" x2="451.986" y2="1614.8431">
		<stop  offset="0" style="stop-color:#FCD66C"/>
		<stop  offset="0.1623" style="stop-color:#FCB77A"/>
		<stop  offset="0.4928" style="stop-color:#FC6D9A"/>
		<stop  offset="1" style="stop-color:#B1158C"/>
	</linearGradient>
	<path class="st3" d="M818.02,212.01c0-1.13-0.91-2.04-2.04-2.04h-92.27c-1.13,0-2.04,0.91-2.04,2.04c0,1.13,0.91,2.04,2.04,2.04
		h92.27C817.11,214.05,818.02,213.14,818.02,212.01z"/>
	<linearGradient id="SVGID_5_" gradientUnits="userSpaceOnUse" x1="323.095" y1="21.395" x2="-11.6849" y2="1498.8905">
		<stop  offset="0" style="stop-color:#FCD66C"/>
		<stop  offset="0.1623" style="stop-color:#FCB77A"/>
		<stop  offset="0.4928" style="stop-color:#FC6D9A"/>
		<stop  offset="1" style="stop-color:#B1158C"/>
	</linearGradient>
	<path class="st4" d="M119.91,351.75h52.39l0.59-1.04c2.48-4.38,7.13-7.11,12.27-7.11h2.24l-0.21-2.23
		c-0.48-5.2,0.58-10.38,3.08-14.99c3.36-6.18,8.92-10.69,15.67-12.68c6.74-2,13.86-1.25,20.05,2.11c0.67,0.36,1.34,0.77,2.05,1.24
		l1.65,1.1l1.14-1.62c3.99-5.67,10.5-9.05,17.41-9.05c11.74,0,21.28,9.55,21.28,21.28c0,4.03-1.14,7.96-3.29,11.36l-1.98,3.13l3.7,0
		c5.22,0,10.03,2.85,12.54,7.44l0.58,1.06h96.43c1.13,0,2.04-0.91,2.04-2.04s-0.91-2.04-2.04-2.04h-94.06
		c-2.77-4.34-7.21-7.29-12.22-8.2c1.56-3.34,2.37-6.99,2.37-10.71c0-13.98-11.38-25.36-25.36-25.36c-7.59,0-14.78,3.42-19.58,9.25
		c-0.25-0.14-0.49-0.28-0.74-0.41c-7.14-3.88-15.36-4.74-23.15-2.43c-7.79,2.31-14.22,7.51-18.09,14.65
		c-2.55,4.69-3.81,9.91-3.68,15.2c-5.29,0.6-10.09,3.54-13.04,8.03h-50.06c-1.13,0-2.04,0.91-2.04,2.04S118.78,351.75,119.91,351.75
		z"/>
	<linearGradient id="SVGID_6_" gradientUnits="userSpaceOnUse" x1="280.2755" y1="11.6927" x2="-54.5045" y2="1489.1882">
		<stop  offset="0" style="stop-color:#FCD66C"/>
		<stop  offset="0.1623" style="stop-color:#FCB77A"/>
		<stop  offset="0.4928" style="stop-color:#FC6D9A"/>
		<stop  offset="1" style="stop-color:#B1158C"/>
	</linearGradient>
	<path class="st5" d="M250.74,370.47c0-1.13-0.91-2.04-2.04-2.04h-99.44c-1.13,0-2.04,0.91-2.04,2.04c0,1.13,0.91,2.04,2.04,2.04
		h99.44C249.83,372.5,250.74,371.59,250.74,370.47z"/>
	<linearGradient id="SVGID_7_" gradientUnits="userSpaceOnUse" x1="291.8513" y1="27.7749" x2="-42.9287" y2="1505.2704">
		<stop  offset="0" style="stop-color:#FCD66C"/>
		<stop  offset="0.1623" style="stop-color:#FCB77A"/>
		<stop  offset="0.4928" style="stop-color:#FC6D9A"/>
		<stop  offset="1" style="stop-color:#B1158C"/>
	</linearGradient>
	<path class="st6" d="M181.11,496.67c-1.14,0-2.18,0.65-2.67,1.68l-8.18,16.86c-0.45,0.92-0.39,2.01,0.15,2.88
		c0.54,0.87,1.5,1.39,2.52,1.39h16.36c1.02,0,1.98-0.53,2.52-1.39c0.54-0.87,0.6-1.96,0.15-2.88l-8.18-16.86
		C183.29,497.33,182.25,496.67,181.11,496.67z M177.68,513.54l3.43-7.08l3.43,7.08H177.68z"/>
	<linearGradient id="SVGID_8_" gradientUnits="userSpaceOnUse" x1="795.9288" y1="139.4239" x2="461.1489" y2="1616.9194">
		<stop  offset="0" style="stop-color:#FCD66C"/>
		<stop  offset="0.1623" style="stop-color:#FCB77A"/>
		<stop  offset="0.4928" style="stop-color:#FC6D9A"/>
		<stop  offset="1" style="stop-color:#B1158C"/>
	</linearGradient>
	<path class="st7" d="M666.06,711.21h7.56c1.62,0,2.93-1.31,2.93-2.93v-24.79c0-1.62-1.31-2.93-2.93-2.93h-7.56
		c-1.62,0-2.93,1.31-2.93,2.93v24.79C663.13,709.9,664.44,711.21,666.06,711.21z"/>
	<linearGradient id="SVGID_9_" gradientUnits="userSpaceOnUse" x1="769.9819" y1="133.5446" x2="435.2019" y2="1611.0402">
		<stop  offset="0" style="stop-color:#FCD66C"/>
		<stop  offset="0.1623" style="stop-color:#FCB77A"/>
		<stop  offset="0.4928" style="stop-color:#FC6D9A"/>
		<stop  offset="1" style="stop-color:#B1158C"/>
	</linearGradient>
	<path class="st8" d="M638.78,711.21h7.56c1.62,0,2.93-1.31,2.93-2.93v-24.79c0-1.62-1.31-2.93-2.93-2.93h-7.56
		c-1.62,0-2.93,1.31-2.93,2.93v24.79C635.85,709.9,637.16,711.21,638.78,711.21z"/>
	<linearGradient id="SVGID_10_" gradientUnits="userSpaceOnUse" x1="897.2631" y1="162.3848" x2="562.4832" y2="1639.8804">
		<stop  offset="0" style="stop-color:#FCD66C"/>
		<stop  offset="0.1623" style="stop-color:#FCB77A"/>
		<stop  offset="0.4928" style="stop-color:#FC6D9A"/>
		<stop  offset="1" style="stop-color:#B1158C"/>
	</linearGradient>
	<path class="st9" d="M772.6,711.21h7.56c1.62,0,2.93-1.31,2.93-2.93v-24.79c0-1.62-1.31-2.93-2.93-2.93h-7.56
		c-1.62,0-2.93,1.31-2.93,2.93v24.79C769.67,709.9,770.98,711.21,772.6,711.21z"/>
	<linearGradient id="SVGID_11_" gradientUnits="userSpaceOnUse" x1="871.3159" y1="156.5055" x2="536.5359" y2="1634.001">
		<stop  offset="0" style="stop-color:#FCD66C"/>
		<stop  offset="0.1623" style="stop-color:#FCB77A"/>
		<stop  offset="0.4928" style="stop-color:#FC6D9A"/>
		<stop  offset="1" style="stop-color:#B1158C"/>
	</linearGradient>
	<path class="st10" d="M745.32,711.21h7.56c1.62,0,2.93-1.31,2.93-2.93v-24.79c0-1.62-1.31-2.93-2.93-2.93h-7.56
		c-1.62,0-2.93,1.31-2.93,2.93v24.79C742.39,709.9,743.7,711.21,745.32,711.21z"/>
	<linearGradient id="SVGID_12_" gradientUnits="userSpaceOnUse" x1="332.535" y1="139.4239" x2="-2.245" y2="1616.9194">
		<stop  offset="0" style="stop-color:#FCD66C"/>
		<stop  offset="0.1623" style="stop-color:#FCB77A"/>
		<stop  offset="0.4928" style="stop-color:#FC6D9A"/>
		<stop  offset="1" style="stop-color:#B1158C"/>
	</linearGradient>
	<path class="st11" d="M202.67,711.21h7.56c1.62,0,2.93-1.31,2.93-2.93v-24.79c0-1.62-1.31-2.93-2.93-2.93h-7.56
		c-1.62,0-2.93,1.31-2.93,2.93v24.79C199.74,709.9,201.05,711.21,202.67,711.21z"/>
	<linearGradient id="SVGID_13_" gradientUnits="userSpaceOnUse" x1="306.588" y1="133.5446" x2="-28.1919" y2="1611.0402">
		<stop  offset="0" style="stop-color:#FCD66C"/>
		<stop  offset="0.1623" style="stop-color:#FCB77A"/>
		<stop  offset="0.4928" style="stop-color:#FC6D9A"/>
		<stop  offset="1" style="stop-color:#B1158C"/>
	</linearGradient>
	<path class="st12" d="M175.39,711.21h7.56c1.62,0,2.93-1.31,2.93-2.93v-24.79c0-1.62-1.31-2.93-2.93-2.93h-7.56
		c-1.62,0-2.93,1.31-2.93,2.93v24.79C172.46,709.9,173.77,711.21,175.39,711.21z"/>
	<linearGradient id="SVGID_14_" gradientUnits="userSpaceOnUse" x1="433.8693" y1="162.3848" x2="99.0893" y2="1639.8804">
		<stop  offset="0" style="stop-color:#FCD66C"/>
		<stop  offset="0.1623" style="stop-color:#FCB77A"/>
		<stop  offset="0.4928" style="stop-color:#FC6D9A"/>
		<stop  offset="1" style="stop-color:#B1158C"/>
	</linearGradient>
	<path class="st13" d="M309.2,711.21h7.56c1.62,0,2.93-1.31,2.93-2.93v-24.79c0-1.62-1.31-2.93-2.93-2.93h-7.56
		c-1.62,0-2.93,1.31-2.93,2.93v24.79C306.27,709.9,307.59,711.21,309.2,711.21z"/>
	<linearGradient id="SVGID_15_" gradientUnits="userSpaceOnUse" x1="407.922" y1="156.5055" x2="73.142" y2="1634.001">
		<stop  offset="0" style="stop-color:#FCD66C"/>
		<stop  offset="0.1623" style="stop-color:#FCB77A"/>
		<stop  offset="0.4928" style="stop-color:#FC6D9A"/>
		<stop  offset="1" style="stop-color:#B1158C"/>
	</linearGradient>
	<path class="st14" d="M281.93,711.21h7.56c1.62,0,2.93-1.31,2.93-2.93v-24.79c0-1.62-1.31-2.93-2.93-2.93h-7.56
		c-1.62,0-2.93,1.31-2.93,2.93v24.79C279,709.9,280.31,711.21,281.93,711.21z"/>
	<linearGradient id="SVGID_16_" gradientUnits="userSpaceOnUse" x1="963.4576" y1="177.3836" x2="628.6777" y2="1654.879">
		<stop  offset="0" style="stop-color:#FCD66C"/>
		<stop  offset="0.1623" style="stop-color:#FCB77A"/>
		<stop  offset="0.4928" style="stop-color:#FC6D9A"/>
		<stop  offset="1" style="stop-color:#B1158C"/>
	</linearGradient>
	<path class="st15" d="M842.19,711.21h7.56c1.62,0,2.93-1.31,2.93-2.93v-24.79c0-1.62-1.31-2.93-2.93-2.93h-7.56
		c-1.62,0-2.93,1.31-2.93,2.93v24.79C839.26,709.9,840.57,711.21,842.19,711.21z"/>
	<linearGradient id="SVGID_17_" gradientUnits="userSpaceOnUse" x1="232.3251" y1="177.3836" x2="-102.4549" y2="1654.879">
		<stop  offset="0" style="stop-color:#FCD66C"/>
		<stop  offset="0.1623" style="stop-color:#FCB77A"/>
		<stop  offset="0.4928" style="stop-color:#FC6D9A"/>
		<stop  offset="1" style="stop-color:#B1158C"/>
	</linearGradient>
	<path class="st16" d="M111.06,711.21h7.56c1.62,0,2.93-1.31,2.93-2.93v-24.79c0-1.62-1.31-2.93-2.93-2.93h-7.56
		c-1.62,0-2.93,1.31-2.93,2.93v24.79C108.13,709.9,109.44,711.21,111.06,711.21z"/>
	<linearGradient id="SVGID_18_" gradientUnits="userSpaceOnUse" x1="850.42" y1="151.7708" x2="515.64" y2="1629.2664">
		<stop  offset="0" style="stop-color:#FCD66C"/>
		<stop  offset="0.1623" style="stop-color:#FCB77A"/>
		<stop  offset="0.4928" style="stop-color:#FC6D9A"/>
		<stop  offset="1" style="stop-color:#B1158C"/>
	</linearGradient>
	<path class="st17" d="M768.28,494.44c-1.14,0-2.18,0.65-2.67,1.68l-8.18,16.86c-0.45,0.92-0.39,2.01,0.15,2.88
		c0.54,0.87,1.5,1.39,2.52,1.39h16.36c1.02,0,1.98-0.53,2.52-1.39c0.54-0.87,0.6-1.96,0.15-2.88l-8.18-16.86
		C770.46,495.09,769.42,494.44,768.28,494.44z M764.85,511.31l3.44-7.08l3.44,7.08H764.85z"/>
	<linearGradient id="SVGID_19_" gradientUnits="userSpaceOnUse" x1="623.5726" y1="100.3703" x2="288.7927" y2="1577.8658">
		<stop  offset="0" style="stop-color:#FCD66C"/>
		<stop  offset="0.1623" style="stop-color:#FCB77A"/>
		<stop  offset="0.4928" style="stop-color:#FC6D9A"/>
		<stop  offset="1" style="stop-color:#B1158C"/>
	</linearGradient>
	<path class="st18" d="M936.6,730.61h-54.44v-72.37c0.01-0.07,0.02-0.14,0.02-0.21c0-0.08-0.02-0.15-0.02-0.23l-0.2-25.63
		c-0.01-0.61-0.2-1.2-0.55-1.7l-28.25-39.82h16.53c1.64,0,2.97-1.33,2.97-2.97v-14.31c0-1.64-1.33-2.97-2.97-2.97h-69.11
		c0.53-0.54,0.86-1.27,0.86-2.09v-6.84h3.91c1.64,0,2.97-1.33,2.97-2.97v-32.95c0-1.34-0.9-2.51-2.19-2.87
		c-1.29-0.35-2.66,0.2-3.34,1.36l-7.74,13.11V510.9c0-1.35-0.91-2.54-2.22-2.88c-1.32-0.34-2.69,0.24-3.35,1.42l-8.53,15.22h-24.98
		l-8.53-15.22c-0.66-1.18-2.03-1.77-3.35-1.42c-1.31,0.34-2.22,1.52-2.22,2.88v26.23l-7.74-13.11c-0.68-1.16-2.05-1.71-3.34-1.36
		c-1.29,0.35-2.19,1.53-2.19,2.87v32.95c0,1.64,1.33,2.97,2.97,2.97h2.31v8.93h-32.11l-8.28-40.41c-0.28-1.36-1.47-2.35-2.86-2.38
		c-1.37-0.03-2.62,0.92-2.94,2.27l-9.83,40.52h-54.13c-0.25-0.23-0.54-0.42-0.88-0.55c-5.36-2.11-8.42-6.28-13.06-12.59
		c-0.9-1.23-1.88-2.54-2.9-3.89h10.53c1.64,0,2.97-1.33,2.97-2.97s-1.33-2.97-2.97-2.97h-14.97c-2.64-3.68-5.1-7.52-7.36-11.55
		h12.84c1.64,0,2.97-1.33,2.97-2.97c0-1.64-1.33-2.97-2.97-2.97h-15.97c-3.97-8.04-7.24-16.68-9.75-25.89l-7.16-26.25
		c-2.38-7.83-4.61-15.05-6.47-21.04c-7.12-22.96-19.7-43.65-36.54-60.28h2.5c1.64,0,2.97-1.33,2.97-2.97s-1.33-2.97-2.97-2.97h-8.83
		l-13.49-52.66h2.66c1.64,0,2.97-1.33,2.97-2.97c0-1.64-1.33-2.97-2.97-2.97h-4.19l-1.81-7.07l-0.65-8h3.27
		c1.64,0,2.97-1.33,2.97-2.97c0-1.64-1.33-2.97-2.97-2.97h-3.76l-3.71-45.38c-0.11-1.36-1.13-2.47-2.47-2.69l-2.12-0.35
		c3.24-21.84,26.26-28.04,27.27-28.3c1.45-0.37,2.41-1.76,2.22-3.25c-0.19-1.49-1.45-2.6-2.95-2.6h-24.24l0.89-12.56
		c0.02-0.26,0-0.53-0.05-0.79l-6.6-33.4h2.77c1.64,0,2.97-1.33,2.97-2.97s-1.33-2.97-2.97-2.97h-3.95l-1.41-7.16l2.65-0.02
		c1.63-0.01,2.95-1.34,2.95-2.98l-0.01-9.18c0-0.28-0.04-0.55-0.12-0.82l-9.5-32.95l-5.08-57.21c-0.14-1.53-1.42-2.71-2.96-2.71
		c0,0-0.01,0-0.02,0c-1.55,0.01-2.83,1.2-2.95,2.74l-4.45,56.52l-10.5,33.12c-0.08,0.27-0.13,0.54-0.14,0.82l-0.25,9.84
		c-0.02,0.81,0.29,1.59,0.85,2.16c0.56,0.57,1.32,0.89,2.12,0.89c0.01,0,0.02,0,0.03,0l2.55-0.02l-1.37,6.95h-3.95
		c-1.64,0-2.97,1.33-2.97,2.97s1.33,2.97,2.97,2.97h2.77l-6.6,33.4c-0.05,0.26-0.07,0.52-0.05,0.78l0.84,12.57h-27.59
		c-1.51,0-2.79,1.14-2.95,2.64c-0.17,1.51,0.82,2.9,2.3,3.23c0.28,0.06,25.88,6.08,30.43,26.68l0.11,1.6l-2.07,0.35
		c-1.34,0.22-2.36,1.33-2.47,2.69l-3.71,45.38h-3.57c-1.64,0-2.97,1.33-2.97,2.97c0,1.64,1.33,2.97,2.97,2.97h3.09l-0.65,8
		l-1.81,7.07h-4.19c-1.64,0-2.97,1.33-2.97,2.97c0,1.64,1.33,2.97,2.97,2.97h2.66l-13.38,52.22c-0.25,0.12-0.55,0.27-0.86,0.43
		h-11.46c-1.64,0-2.97,1.33-2.97,2.97s1.33,2.97,2.97,2.97h2.59c-4.16,3.35-9.14,8.15-14.36,14.9
		c-9.22,11.93-15.99,26.02-20.13,41.89c-4.64,17.81-12.66,48.84-14.32,57.1c-1.94,6.91-4.37,13.43-7.25,19.57h-16.55
		c-1.64,0-2.97,1.33-2.97,2.97c0,1.64,1.33,2.97,2.97,2.97h13.57c-2.19,4.06-4.62,7.9-7.24,11.55h-18.28
		c-1.64,0-2.97,1.33-2.97,2.97s1.33,2.97,2.97,2.97h13.72c-6.94,8.32-14.24,14.27-20.91,17.03h-64.19l-9.83-40.52
		c-0.32-1.34-1.52-2.27-2.89-2.27c-0.02,0-0.04,0-0.05,0c-1.39,0.03-2.58,1.01-2.86,2.38l-8.28,40.41h-32.93v-9.37h3.91
		c1.64,0,2.97-1.33,2.97-2.97V525.1c0-1.34-0.9-2.51-2.19-2.87c-1.29-0.35-2.66,0.2-3.34,1.36l-7.74,13.11v-26.23
		c0-1.35-0.91-2.54-2.22-2.88c-1.31-0.34-2.68,0.24-3.34,1.42l-8.53,15.23h-24.98l-8.53-15.23c-0.66-1.18-2.04-1.77-3.34-1.42
		c-1.31,0.34-2.22,1.52-2.22,2.88v26.23l-7.74-13.11c-0.68-1.15-2.05-1.71-3.34-1.36c-1.29,0.35-2.19,1.53-2.19,2.87v32.95
		c0,1.64,1.33,2.97,2.97,2.97h2.31v9.37H91.75c-1.64,0-2.97,1.33-2.97,2.97v14.31c0,1.64,1.33,2.97,2.97,2.97h15.06l-9.39,13.23l0,0
		l-18.86,26.58c0,0.01-0.01,0.01-0.01,0.02c-0.15,0.22-0.27,0.46-0.36,0.71c-0.02,0.06-0.04,0.11-0.05,0.17
		c-0.07,0.24-0.12,0.49-0.12,0.76c0,0.01-0.01,0.03-0.01,0.04l-0.2,25.86v72.59H23.4c-1.88,0-3.4,1.52-3.4,3.4s1.52,3.4,3.4,3.4
		h913.2c1.88,0,3.4-1.52,3.4-3.4S938.48,730.61,936.6,730.61z M501.3,234.25h11.07c-4.02,2.52-8.31,6-11.83,10.64L501.3,234.25z
		 M447.68,234.25h12.9l0.75,11.22C457.35,240.54,452.35,236.88,447.68,234.25z M876.04,635.15l0.16,19.89h-52.22v-19.89l52.02,0
		C876,635.16,876.02,635.15,876.04,635.15z M715.05,602.57l-7.42-11.93h60.67c-0.07,0.67,0.07,1.36,0.47,1.96l6.69,9.97H715.05z
		 M729.23,608.51v16.84l-10.48-16.84H729.23z M773.05,570.39h-33.22v-8.93h34.65L773.05,570.39z M741.4,629.2v-20.69h10.4v20.69
		h12.17v-20.69h15.48l13.88,20.69l-61.7,0l0-0.01H741.4z M732.96,635.16l63.06,0l0.6,19.89h-63.66V635.16z M784.42,605.25
		c-0.1-1.01-0.7-1.87-1.56-2.32l-7.38-11.01c0.13-0.26,0.24-0.55,0.29-0.86l4.74-29.61h1.68l4.29,25.43
		c-0.07,0.25-0.12,0.51-0.12,0.78c0,0.63,0.2,1.21,0.53,1.69l0.26,1.56c-0.01,0.63,0.17,1.27,0.58,1.81l27.32,36.48l-14.57,0
		L784.42,605.25z M796.35,570.39h-6.63l-1.51-8.93h7.28v6.84C795.5,569.11,795.83,569.85,796.35,570.39z M818.03,635.16v19.89
		h-15.46l-0.6-19.89L818.03,635.16z M806.99,608.52h17.15c0,0.05-0.01,0.09-0.01,0.14v20.55h-1.64L806.99,608.52z M873.23,629.21
		l-40.1,0v-20.55c0-0.05-0.01-0.09-0.01-0.14h25.43L873.23,629.21z M854.34,602.57h-51.8l-8.93-11.93h52.27L854.34,602.57z
		 M866.73,576.33v8.36h-74.59l-1.41-8.36H866.73z M795.46,545.25c1.05,0,2.03-0.56,2.56-1.46l4.36-7.38v19.1h-15.16l-1.73-10.26
		H795.46z M747.82,522.29l3.81,6.81c0.53,0.94,1.52,1.52,2.59,1.52h28.46c1.08,0,2.07-0.58,2.59-1.52l3.82-6.81v17.02h-4.62
		l-0.3-1.79c-0.24-1.43-1.48-2.48-2.93-2.48c0,0-0.01,0-0.01,0c-1.46,0.01-2.69,1.07-2.92,2.5l-0.28,1.77h-30.21V522.29z
		 M734.54,536.41l4.36,7.38c0.53,0.91,1.51,1.46,2.56,1.46h35.62l-1.64,10.26h-40.89V536.41z M772.1,576.33l-1.36,8.47
		c-0.24-0.06-0.5-0.11-0.76-0.11h-64.9c-0.13,0-0.25,0.02-0.37,0.04l-1.72-8.4H772.1z M690.33,544.19l9.03,44.07
		c0.07,0.35,0.2,0.68,0.39,0.97l24.88,39.97l-18.55,0l-26.17-42.05L690.33,544.19z M727.01,635.16v19.89h-19.6v-19.89L727.01,635.16
		z M643.58,629.2v-20.69h15.33v20.69h13.42v-20.69h13.34c0.17,0,0.34-0.02,0.5-0.05l12.91,20.74l-84.11,0l-9.93-20.69h25.11v20.69
		H643.58z M616.07,635.15l85.39,0v19.89h-85.39V635.15z M682.5,602.57h-80.31l-5.72-11.92h78.6L682.5,602.57z M676.42,576.33
		l-2.03,8.36H523.51l0-8.36H676.42z M249.47,629.21l12.88-20.7h13.87v20.69h13.42v-20.69h15.33v20.69h13.42v-20.69h25.11
		l-9.93,20.69L249.47,629.21z M332.47,635.15v19.89h-85.39v-19.89L332.47,635.15z M338.42,632.86l20.25-42.22h56.35
		c0,0.07-0.02,0.13-0.02,0.21v32.27c0,1.64,1.33,2.97,2.97,2.97h15.59l-23.66,14.05l-8.84-8.11c-0.87-0.8-2.13-1.01-3.21-0.53
		c-1.08,0.47-1.78,1.54-1.78,2.72v20.82h-57.66V632.86z M402.03,640.98l6.43,5.9c0.55,0.5,1.27,0.78,2.01,0.78h54.26
		c-6.42,2.81-12.03,7.1-16.41,12.46h-46.3V640.98z M482.19,649.97h5.23c19.83,0,36.09,15.37,37.6,34.82h-80.42
		C446.1,665.35,462.36,649.97,482.19,649.97z M521.27,660.13c-4.37-5.36-9.99-9.65-16.4-12.46h49.66c0.76,0,1.48-0.29,2.03-0.81
		l6.16-5.78v19.04H521.27z M421.3,640.29l23.91-14.2h73.86l23.91,14.2H421.3z M444.39,620.14h-23.44v-21.71l8.49,11.56
		c0.56,0.76,1.45,1.21,2.4,1.21h27.99c0.08,0,0.16-0.02,0.24-0.02c0.86,0.07,1.75-0.22,2.4-0.89l16.48-17.22l5.52,0.02
		c0.11,0.01,0.23,0.04,0.34,0.04l2.31,0.01l15.92,16.63c0.52,0.86,1.46,1.44,2.53,1.44h28.42c0.91,0,1.77-0.42,2.33-1.13l8.37-10.63
		v20.69h-24.8H444.39z M481.91,523.81h5.24l4.58,27.43l-3.9,7.78h-1.03l-0.25-0.32c-1.12-1.46-3.59-1.46-4.71,0l-0.25,0.32h-0.37
		l-3.9-7.78L481.91,523.81z M477.41,517.83l6.57-20.3l6.57,20.3H477.41z M484.19,565.39l9.22,11.99c0.25,0.47,0.62,0.87,1.08,1.15
		c0.5,0.34,1.08,0.54,1.68,0.54c0.21,0,0.42-0.06,0.63-0.1h13.19c0.81,0,1.59-0.33,2.15-0.92l5.43-5.69l-0.01,14.98l-27.9-0.12
		l-4.52-4.72c-1.12-1.17-3.17-1.17-4.3,0l-4.44,4.64l-27.97-0.1v-15.04l6.27,6.13c0.55,0.54,1.3,0.85,2.08,0.85h14.66
		c1.12,0.3,2.37-0.08,3.12-1.06L484.19,565.39z M520.52,593.29c0,0,0.01,0,0.01,0c0.79,0,1.54-0.31,2.1-0.87
		c0.48-0.48,0.77-1.11,0.84-1.78h20.59l-11.52,14.62H515.3v-12L520.52,593.29z M509.35,593.24v12.03h-2.4l-11.57-12.09
		L509.35,593.24z M470.74,593.05l-11.7,12.22h-3.71v-12.27L470.74,593.05z M449.38,592.97v12.29h-16.05l-10.73-14.62h19.35
		c0.21,0,0.41-0.02,0.6-0.06c0.28,1.35,1.47,2.37,2.9,2.38L449.38,592.97z M600.66,555c1.6,2.05,3.02,3.98,4.33,5.77
		c2.73,3.72,5.16,6.97,7.98,9.62h-89.46l0-5.47c0-1.22-0.74-2.31-1.87-2.76c-1.12-0.45-2.42-0.17-3.26,0.71l-9.68,10.15h-11.16
		l-6.48-8.43c0.52-0.29,0.96-0.71,1.24-1.26l5-9.97h102.13C599.85,553.9,600.24,554.47,600.66,555z M595.22,547.41h-98.11
		l-1.93-11.55h93.16C590.46,539.86,592.75,543.71,595.22,547.41z M469.16,156.38l10.48-33.05c0.07-0.22,0.11-0.44,0.13-0.67
		l1.69-21.48l1.97,22.15c0.02,0.19,0.05,0.38,0.11,0.56l9.46,32.82l0.01,5.81l-24.01,0.2L469.16,156.38z M488.72,175.62h-15.5
		l1.07-5.39h13.37L488.72,175.62z M472.04,181.57h17.85l6.75,34.16l-0.89,12.58h-29.62l-0.85-12.57L472.04,181.57z M495.34,234.25
		l-1.94,27.41h-24.84c-0.08-0.5-0.18-0.98-0.28-1.46l-1.74-25.94H495.34z M463.66,268.3l1.9-0.32c0.19,0.02,0.39,0.03,0.59,0.02
		c0.52-0.03,0.98-0.21,1.39-0.47c0.21,0.05,0.43,0.08,0.65,0.08h25.56c0.26,0,0.51-0.04,0.76-0.11c0.42,0.28,0.9,0.47,1.44,0.5
		c0.07,0,0.13,0.01,0.2,0.01c0.08,0,0.16-0.02,0.24-0.02l1.89,0.31l0.53,6.49c-0.03,0-0.05-0.01-0.08-0.01h-35.52
		c-0.03,0-0.05,0.01-0.08,0.01L463.66,268.3z M462.65,280.66c0.18,0.03,0.37,0.06,0.56,0.06h35.52c0.19,0,0.38-0.02,0.56-0.06
		l2.47,30.22h-41.58L462.65,280.66z M458.9,326.06c0.04-0.16,0.07-0.33,0.08-0.5l0.71-8.73h42.55l0.71,8.73
		c0.01,0.17,0.04,0.33,0.08,0.5l1.5,5.84H457.4L458.9,326.06z M455.88,337.84h50.18l13.49,52.66h-77.17L455.88,337.84z
		 M383.57,511.83c0.02-0.07,0.04-0.15,0.05-0.22c1.58-7.94,9.61-39.04,14.26-56.87c3.93-15.09,10.35-28.46,19.08-39.75
		c8.39-10.86,16.07-16.24,20.07-18.54h86.33c18.41,16.6,32.07,38.03,39.51,62.04c1.85,5.98,4.09,13.19,6.44,20.92l7.14,26.17
		c2.34,8.59,5.35,16.7,8.92,24.33h-90.76c-0.14,0-0.28,0.02-0.42,0.04l-1.03-6.17h1.47c0.95,0,1.85-0.46,2.41-1.22
		c0.56-0.77,0.72-1.76,0.42-2.66l-10.66-32.93c-0.4-1.23-1.54-2.06-2.83-2.06c-1.29,0-2.43,0.83-2.83,2.06l-10.66,32.93
		c-0.29,0.9-0.13,1.9,0.42,2.66c0.56,0.77,1.45,1.22,2.4,1.22h2.56l-1.02,6.13h-97.75C379.63,524.18,381.8,518.16,383.57,511.83z
		 M374.28,535.86h99.58l-1.93,11.55H367.58C370.01,543.74,372.24,539.88,374.28,535.86z M363.38,553.37c0-0.01,0.01-0.01,0.01-0.02
		h108.34l5,9.97c0.19,0.39,0.48,0.7,0.81,0.96l-6.71,8.72H458l-10.45-10.22c-0.86-0.84-2.13-1.08-3.23-0.62
		c-1.1,0.46-1.82,1.54-1.82,2.74v5.47h-95.8C352.32,566.23,357.96,560.49,363.38,553.37z M335.51,576.33
		C335.51,576.33,335.51,576.33,335.51,576.33c0.01,0,0.01,0,0.02,0H442.5v8.42c-0.18-0.03-0.36-0.05-0.54-0.05H276.4
		c-0.79,0-1.51,0.32-2.04,0.82l-2.23-9.18H335.51z M274.14,589.58c0.55,0.65,1.35,1.07,2.26,1.07h75.67l-5.72,11.92h-80.3
		L274.14,589.58z M248.8,589.24c0.01-0.02,0.01-0.04,0.02-0.06c0.17-0.28,0.3-0.59,0.37-0.93l9.03-44.06l6.91,28.47
		c-0.05,0.22-0.09,0.45-0.09,0.7c0,0.74,0.28,1.41,0.73,1.93l2.88,11.87l-26.17,42.05l-18.54,0L248.8,589.24z M123.98,608.51h17.58
		l-15.5,20.7h-2.07v-20.55C123.99,608.61,123.98,608.56,123.98,608.51z M130.52,635.16l16.06,0l-0.6,19.89h-15.46V635.16z
		 M133.49,629.21l27.32-36.48c0.41-0.54,0.59-1.18,0.58-1.81l5.04-29.89h1.54l4.81,30.04c0.05,0.31,0.16,0.59,0.29,0.85
		l-25.01,37.29L133.49,629.21z M158.43,570.39h-6.2v-9.37h8.17l-1.59,9.4C158.69,570.41,158.57,570.39,158.43,570.39z
		 M152.53,635.16l63.06,0v19.89h-63.66L152.53,635.16z M155.22,629.21l13.88-20.7h15.48v20.69h12.17v-20.69h10.4v20.69h9.77l0,0.01
		L155.22,629.21z M173.09,602.57l6.69-9.97c0.4-0.6,0.54-1.29,0.48-1.96h60.67l-7.42,11.92H173.09z M174,561.02h33.9v9.37h-32.41
		L174,561.02z M219.32,608.51h10.48l-10.48,16.84V608.51z M221.54,635.16l19.6,0v19.89h-19.6V635.16z M245.56,576.33l-1.71,8.36
		h-66.06l-1.34-8.36H245.56z M207.86,544.82c1.05,0,2.03-0.56,2.56-1.46l4.36-7.38v19.1h-41.74l-1.64-10.26H207.86z M160.22,521.85
		l3.81,6.81c0.53,0.94,1.52,1.52,2.59,1.52h28.46c1.08,0,2.07-0.58,2.59-1.52l3.81-6.81v17.02h-31.05l-0.21-1.33
		c-0.23-1.44-1.47-2.5-2.92-2.5c-1.41-0.04-2.7,1.04-2.94,2.48l-0.23,1.36h-3.92V521.85z M146.95,535.98l4.36,7.38
		c0.53,0.91,1.51,1.46,2.56,1.46h9.27l-1.73,10.26h-14.46V535.98z M94.73,584.7v-8.36h63.1l-1.41,8.36H94.73z M114.1,590.64h40.84
		l-8.93,11.92h-40.37L114.1,590.64z M101.43,608.51h13.57c0,0.05-0.01,0.09-0.01,0.14v20.55l-28.24,0L101.43,608.51z M83.94,635.16
		l40.63,0v19.89H83.79L83.94,635.16z M347.96,730.61h-79.81c0.69-0.74,1.12-1.73,1.12-2.82v-43.05c0-2.31-1.87-4.18-4.18-4.18h-7.91
		c-2.31,0-4.18,1.87-4.18,4.18v43.05c0,1.09,0.43,2.08,1.12,2.82h-92.52c0.69-0.74,1.12-1.73,1.12-2.82v-43.05
		c0-2.31-1.87-4.18-4.18-4.18h-7.91c-2.31,0-4.18,1.87-4.18,4.18v43.05c0,1.09,0.43,2.08,1.12,2.82H83.76v-19.41
		c0.05,0,0.11,0.02,0.16,0.02h7.56c1.62,0,2.93-1.31,2.93-2.93v-24.79c0-1.62-1.31-2.93-2.93-2.93h-7.56
		c-0.05,0-0.11,0.01-0.16,0.02v-19.58h264.2V730.61z M438.49,687.72v0.04v1.34v41.5h-84.58v-69.62h42.17v2.12
		c0,1.64,1.33,2.97,2.97,2.97h45.19C440.59,672.47,438.49,679.85,438.49,687.72z M452.07,730.61h-7.63v-38.53h7.63V730.61z
		 M525.17,730.61h-4.88v-38.53h4.88V730.61z M608.03,730.61h-76.91v-41.5v-1.34v-0.04c0-7.87-2.1-15.26-5.76-21.64h40.33
		c1.64,0,2.97-1.33,2.97-2.97v-2.12h39.37V730.61z M610.13,655.04h-41.47v-20.82c0-1.19-0.71-2.26-1.79-2.73
		c-1.09-0.47-2.35-0.25-3.22,0.56l-8.88,8.33l-24.06-14.29h16.95c1.64,0,2.97-1.33,2.97-2.97v-31.49c0.11-0.32,0.16-0.65,0.16-0.98
		h39.08l20.25,42.21V655.04z M876.22,680.56h-6.74c-1.62,0-2.93,1.31-2.93,2.93v24.79c0,1.62,1.31,2.93,2.93,2.93h6.74v19.4h-62.86
		c0.69-0.74,1.12-1.73,1.12-2.82v-43.05c0-2.31-1.87-4.18-4.18-4.18h-7.91c-2.31,0-4.18,1.87-4.18,4.18v43.05
		c0,1.09,0.43,2.08,1.12,2.82h-92.52c0.69-0.74,1.12-1.73,1.12-2.82v-43.05c0-2.31-1.87-4.18-4.18-4.18h-7.91
		c-2.31,0-4.18,1.87-4.18,4.18v43.05c0,1.09,0.43,2.08,1.12,2.82h-78.83v-69.62h262.24V680.56z"/>
</g>
</svg>
